<?xml version="1.0" encoding="UTF-8" standalone="no"?>
<!-- Created with Inkscape (http://www.inkscape.org/) -->

<svg
   width="210mm"
   height="297mm"
   viewBox="1 0 69 45"
   version="1.1"
   id="svg5"
   xmlns="http://www.w3.org/2000/svg"
   xmlnsSvg="http://www.w3.org/2000/svg">
  <defs
     id="defs2" />
  <g
     id="layer1">
    <path
       id="path9584"
       style="fill:#1c1c1c;fill-opacity:1;stroke:none;stroke-width:0.264583"
       d="M 23.660156,0.54492188 V 5.1855469 l 4.646485,4.640625 h 4.646484 4.646484 l 4.44336,-2.1523438 4.851562,-2.4882812 V 0.54492188 H 42.248047 37.601562 32.953125 28.306641 Z M 46.894531,5.1855469 c 0,0 -5.979304,3.7181782 -1.126953,5.8710941 1.415815,0.628176 4.81836,0.308593 4.81836,0.308593 l 7.24414,0.232422 3.00586,-1.7714841 v -4.640625 h -4.646485 -4.648437 z m 13.941407,4.640625 c 0,0 -4.031428,2.3861681 -1.025391,5.2558591 1.120486,1.069664 5.671875,-0.615234 5.671875,-0.615234 V 9.8261719 Z m 4.646484,4.6406251 -2.083984,3.925781 -2.5625,5.357422 v 4.640625 l 4.646484,4.638672 h 4.646484 V 28.388672 23.748047 19.107422 14.466797 Z M 23.660156,5.1855469 H 19.013672 14.365234 9.71875 v 4.640625 l 2.904297,2.5898441 6.390625,-0.333985 6.902344,2.384766 z M 9.71875,9.8261719 H 5.0722656 V 14.466797 H 0.42578125 v 4.640625 4.640625 4.640625 4.640625 H 9.71875 V 28.390625 23.75 19.109375 16.03125 l 2.050781,0.691406 z" />
    <path
       id="path9581"
       style="fill:#080808;fill-opacity:1;stroke:none;stroke-width:0.264583"
       d="m 5.0722123,33.029191 v 4.641061 h 4.6472605 c 0,0 4.6472602,-2.358519 0,-4.641061 -1.3904278,-0.682921 -4.6472605,0 -4.6472605,0 z m 4.6472605,4.641061 v 4.640543 h 4.6472602 4.64674 4.64675 v 4.640543 h 4.64726 4.64674 4.64727 4.64674 4.64726 v -4.641061 l -4.134539,-2.050886 -4.851828,-0.71781 -4.339637,-0.410177 -5.056917,0.71781 -4.851829,2.461063 c 0,0 4.851829,-2.461063 0,-4.640025 -1.413123,-0.634635 -4.852359,-1.845797 -4.852359,-1.845797 l -4.441651,-0.512722 z m 37.1760202,4.640025 h 4.64675 4.64726 4.64674 v -4.640025 h 4.64726 v -4.641061 c 0,0 -3.307082,-0.7743 -4.647838,0.002 -4.646162,2.690135 5.78e-4,4.638477 5.78e-4,4.638477 l -4.64674,-1.948342 -4.237083,-0.205088 c 0,0 -0.398056,-0.762597 -5.056989,2.15443 -4.134477,2.588657 6.2e-5,4.639543 6.2e-5,4.639543 z" />
    <path
       id="path9578"
       style="fill:#212121;fill-opacity:1;stroke:none;stroke-width:0.264583"
       d="m 30.6977,18.6979 3.8e-5,5.153266 9.261757,0.205088 -0.307632,-5.255808 z m -25.6260729,9.691784 5.858e-4,4.639507 h 4.6472609 c 0,0 3.0054822,-2.9988 0,-4.640543 z m 4.544719,2.17948 0.1031277,7.10057 h 4.6472602 4.646745 4.647264 c 0,0 5.056921,-1.333076 0,-4.640543 -1.29642,-0.84792 -5.159985,-1.948342 -5.159985,-1.948342 l -3.621303,-0.102544 z m 14.0443969,7.10057 v 4.640543 h 4.646744 4.647261 4.646745 4.64726 4.646745 v -4.640543 l -4.749289,-1.538164 -4.544716,-0.615266 -4.031479,0.820354 h -4.85235 z m 23.234755,0 h 4.647263 4.646745 4.647261 v -4.640027 h 4.64571 v -4.640543 c 0,0 -3.589304,-1.449732 -4.954378,-0.71781 -3.826942,2.051919 -3.519309,2.769729 -3.519309,2.769729 l -1.639638,1.357576 -3.826391,-0.102544 c 0,0 -3.350358,0.485898 -4.647263,1.333076 -4.749289,3.102379 0,4.640543 0,4.640543 z" />
    <path
       id="path9575"
       style="fill:#4f4f4f;fill-opacity:1;stroke:none;stroke-width:0.264583"
       d="M 23.659671,9.8264762 19.01241,14.467534 H 35.107108 L 35.004564,9.7244469 Z m 11.344893,-0.1020293 -2.051433,4.7430871 9.192008,2.461063 7.107808,-2.666152 1.333076,-2.897289 -8.543429,-3.691595 z m -22.382152,2.6922011 -2.9040086,11.33249 11.0372596,-2.050886 2.903462,-2.589657 2.25652,-4.641061 H 19.01241 Z m 37.963611,-1.051492 -0.890129,8.974453 9.15921,1.538164 -1.025443,-10.280445 z m -40.8676196,7.743438 -2.0508859,5.358354 6.6981185,-0.71781 4.646774,-9.281604 z m 0,1e-6 3.0065526,10.921796 7.910569,0.07251 0.120138,-8.404649 z m 44.0792306,-2.384568 2.391287,7.025111 7.107838,1.949376 0.102544,-7.306696 z m -9.274165,6.528366 0.832795,6.675968 5.77525,0.410178 5.877276,0.102544 -0.205088,-9.35758 -5.159467,0.512722 z m -22.709078,3.39352 -1.948342,6.384311 c 0,0 11.581761,-0.0452 8.33834,0.410177 -2.465212,0.346117 7.344631,0.615754 7.344631,0.615754 v -5.768533 l -7.24315,0.102062 z m 13.734629,1.641709 v 5.768533 l 6.698147,-1.025443 c 0,0 2.390559,-2.450773 0,-4.640546 -1.646588,-1.508289 -6.698147,-0.102544 -6.698147,-0.102544 z" />
    <path
       id="path9572"
       style="fill:#000000;fill-opacity:1;stroke:none;stroke-width:0.264583"
       d="m 28.306411,14.467535 c -2.390395,-7.38e-4 0,4.640543 0,4.640543 0,0 -2.710887,-2.186434 -4.647286,5.17e-4 -1.714698,1.936564 -1.844734,7.537318 -1.844734,7.537318 0,0 8.808078,-3.398787 6.49202,-2.897291 -1.711489,0.370588 0,4.640543 0,4.640543 h 4.647264 4.64675 4.64726 v -4.640543 h 5.2e-4 c 0,0 0.969049,1.666744 4.64674,0 4.74929,-2.152397 3.006038,-3.921734 0.205059,-5.152748 -2.625318,-1.153812 -4.851799,0.512204 -4.851799,0.512204 l 1.957244,-1.305176 -1.957764,-3.335367 h -4.64726 -4.64675 c 0,0 0,0.0014 -4.647264,0 z m 4.647264,4.640543 h 4.64675 5.1e-4 v 4.640544 h -5.1e-4 -4.64675 z" />
    <a
       id="a15591">
      <path
         id="path9569"
         style="fill:#3d3d3d;fill-opacity:1;stroke:none;stroke-width:0.264583"
         d="M 23.659125,5.1859325 V 9.8264752 H 19.011862 14.365117 9.7178564 v 4.6410588 h 4.6472606 4.646745 4.647263 v 4.641061 H 28.30587 V 14.467534 9.8264752 h 4.647261 v 4.6410588 h 4.646744 V 9.8264752 h 4.647261 4.646745 V 5.1859325 H 42.247136 37.599875 32.953131 28.30587 Z m 23.234756,4.6405427 v 4.6410588 h 4.647263 4.646745 4.647261 V 9.8264752 H 56.187889 51.541144 Z M 23.659125,19.108595 h -4.646744 -4.646745 v 4.640543 h 4.646745 v 4.640027 h -4.645713 -0.001 V 23.749138 H 9.7184034 V 19.108595 H 14.365668 V 14.468053 H 9.7183714 5.0716271 v 4.640542 4.640543 4.640546 h 4.6467443 5.19e-4 v 4.640543 h 4.6472616 4.646744 4.647261 v -4.640543 h 4.645713 c 0,-4.640546 0,-4.640546 0,-4.640546 h -4.646745 z m 18.58853,-4.640542 v 4.640542 h 4.646744 5.16e-4 v 4.640543 h 4.647261 4.646229 v 4.640546 h 4.64726 4.646745 v -4.640546 -4.640543 -4.640542 h -4.646745 -4.64726 v 4.640542 h -4.646229 -5.16e-4 v -4.640542 h -4.647261 z m 4.64726,9.281085 h -4.64726 v 4.640546 h 4.64726 z m 9.294006,-4.640543 h 4.646744 v 4.640543 h -4.646744 z m -23.23424,9.28057 v 4.640546 h 4.647261 v -4.640546 z m 9.292974,0.001 v 4.640027 H 37.601426 32.954681 28.30742 l -4.647263,3.5e-5 5.19e-4,4.640508 h 4.646744 4.647261 4.646745 4.647261 4.646744 v -4.639511 h 4.646229 4.646745 4.64726 v -4.641059 h -4.64726 -4.646745 -4.647261 z" />
    </a>
  </g>
</svg>
